<?xml version="1.0" encoding="UTF-8"?>
<svg version="1.1" xmlns="http://www.w3.org/2000/svg" width="28" height="28">
<path d="M0 0 C2.8257197 1.69543182 3.68556639 2.91189421 4.59375 6.0546875 C5.34038716 10.31913437 5.25807483 12.47429201 3.3125 16.4375 C0.24078563 19.8412916 -1.3659993 20.78686947 -5.875 21.375 C-9.87153796 20.89541545 -11.90459308 19.53260567 -15 17 C-17.39441422 13.22602262 -17.14074449 10.42348391 -16.546875 6.125 C-15.7792448 3.14220836 -14.49076863 1.75818962 -12 0 C-7.81164754 -1.39611749 -4.27360055 -0.96600374 0 0 Z M-10.875 4.5 C-11.24625 4.995 -11.6175 5.49 -12 6 C-10.9275 5.814375 -9.855 5.62875 -8.75 5.4375 C-5.59608454 5.0695432 -3.90181508 4.95534657 -1 6 C-1 5.34 -1 4.68 -1 4 C-4.40830501 2.2958475 -7.84058198 2.07246559 -10.875 4.5 Z M-13 7 C-13 8.98 -13 10.96 -13 13 C-12.67 13 -12.34 13 -12 13 C-12 11.02 -12 9.04 -12 7 C-12.33 7 -12.66 7 -13 7 Z M0 7 C0 7.66 0 8.32 0 9 C0.99 9 1.98 9 3 9 C3 8.34 3 7.68 3 7 C2.01 7 1.02 7 0 7 Z M-5 8 C-5 9.32 -5 10.64 -5 12 C-4.01 11.67 -3.02 11.34 -2 11 C-2.66 11 -3.32 11 -4 11 C-4 10.34 -4 9.68 -4 9 C-3.34 8.67 -2.68 8.34 -2 8 C-2.99 8 -3.98 8 -5 8 Z M-10 12 C-10.33 12.99 -10.66 13.98 -11 15 C-9.11340125 17.30662599 -9.11340125 17.30662599 -6 17.3125 C-5.01 17.209375 -4.02 17.10625 -3 17 C-2.34 16.01 -1.68 15.02 -1 14 C-2.11375 13.855625 -3.2275 13.71125 -4.375 13.5625 C-8 13 -8 13 -10 12 Z " fill="#00BFC6" transform="translate(20,4)"/>
<path d="M0 0 C2.8257197 1.69543182 3.68556639 2.91189421 4.59375 6.0546875 C5.34038716 10.31913437 5.25807483 12.47429201 3.3125 16.4375 C0.24078563 19.8412916 -1.3659993 20.78686947 -5.875 21.375 C-9.87153796 20.89541545 -11.90459308 19.53260567 -15 17 C-17.39441422 13.22602262 -17.14074449 10.42348391 -16.546875 6.125 C-15.7792448 3.14220836 -14.49076863 1.75818962 -12 0 C-7.81164754 -1.39611749 -4.27360055 -0.96600374 0 0 Z M-14 5 C-15.42662219 7.85324437 -15.31033868 9.83454549 -15 13 C-13.20006226 15.69990662 -11.916227 17.5418865 -9 19 C-5.12785818 19.43023798 -3.47503629 19.31669086 -0.1875 17.125 C2.44373179 14.56894626 2.94931217 13.77721341 3.1875 10.125 C3.00322294 7.05371571 2.7058043 5.51381686 1 3 C-4.52331333 -0.68220889 -10.03670929 -0.39007536 -14 5 Z " fill="#022A4F" transform="translate(20,4)"/>
<path d="M0 0 C1.3479743 0.63654342 2.68596724 1.29605388 4 2 C4 2.66 4 3.32 4 4 C2.35 3.67 0.7 3.34 -1 3 C-1 4.98 -1 6.96 -1 9 C-1.598125 8.814375 -2.19625 8.62875 -2.8125 8.4375 C-5.16408762 7.77906313 -5.16408762 7.77906313 -8 9 C-8 6.36 -8 3.72 -8 1 C-4.91013114 -0.87599181 -3.40359125 -1.27634672 0 0 Z " fill="#012C53" transform="translate(16,9)"/>
</svg>
